<?xml version="1.0" ?><!DOCTYPE svg  PUBLIC '-//W3C//DTD SVG 1.1//EN'  'http://www.w3.org/Graphics/SVG/1.1/DTD/svg11.dtd'><svg enable-background="new 0 0 24 24" height="24px" id="Layer_1" version="1.1" viewBox="0 0 24 24" width="24px" xml:space="preserve" xmlns="http://www.w3.org/2000/svg" xmlns:xlink="http://www.w3.org/1999/xlink"><g><path d="M7,10h10c0-2.1-1.3-3.9-3.2-4.6C14.5,4.8,15,4,15,3c0-1.7-1.3-3-3-3S9,1.3,9,3c0,1,0.5,1.8,1.2,2.4C8.3,6.1,7,7.9,7,10z    M10,3c0-1.1,0.9-2,2-2s2,0.9,2,2s-0.9,2-2,2S10,4.1,10,3z M12,6c1.9,0,3.4,1.3,3.9,3H8.1C8.6,7.3,10.1,6,12,6z"/><path d="M20.8,19.4C21.5,18.8,22,18,22,17c0-1.7-1.3-3-3-3s-3,1.3-3,3c0,1,0.5,1.8,1.2,2.4C15.3,20.1,14,21.9,14,24h10   C24,21.9,22.7,20.1,20.8,19.4z M17,17c0-1.1,0.9-2,2-2s2,0.9,2,2s-0.9,2-2,2S17,18.1,17,17z M19,20c1.9,0,3.4,1.3,3.9,3h-7.7   C15.6,21.3,17.1,20,19,20z"/><path d="M6.8,19.4C7.5,18.8,8,18,8,17c0-1.7-1.3-3-3-3s-3,1.3-3,3c0,1,0.5,1.8,1.2,2.4C1.3,20.1,0,21.9,0,24h10   C10,21.9,8.7,20.1,6.8,19.4z M3,17c0-1.1,0.9-2,2-2s2,0.9,2,2s-0.9,2-2,2S3,18.1,3,17z M1.1,23c0.4-1.7,2-3,3.9-3s3.4,1.3,3.9,3   H1.1z"/><path d="M5,6h2V5H5C4.4,5,4,5.4,4,6v7h1V6z"/><path d="M19,13h1V6c0-0.6-0.4-1-1-1h-2v1h2V13z"/></g></svg>